<?xml version="1.0" encoding="UTF-8" standalone="no"?>
<svg
   xmlns:dc="http://purl.org/dc/elements/1.1/"
   xmlns:cc="http://creativecommons.org/ns#"
   xmlns:rdf="http://www.w3.org/1999/02/22-rdf-syntax-ns#"
   xmlns:svg="http://www.w3.org/2000/svg"
   xmlns="http://www.w3.org/2000/svg"
   id="svg102"
   viewBox="0 0 100 100"
   style="width:100%; height:100%; pointer-events:none; opacity:0"
   version="1.1">
  <metadata
     id="metadata8">
    <rdf:RDF>
      <cc:Work
         rdf:about="">
        <dc:format>image/svg+xml</dc:format>
        <dc:type
           rdf:resource="http://purl.org/dc/dcmitype/StillImage" />
        <dc:title></dc:title>
      </cc:Work>
    </rdf:RDF>
  </metadata>
  <defs
     id="defs6" />
  <path
     d="m 50,6 v 3.52 m 0,80.96 V 94 M 94,50 H 90.48 M 9.52,50 H 6"
     style="fill:none;stroke:#7f7f7f;stroke-width:0.88000005;stroke-miterlimit:4;stroke-dasharray:none;stroke-opacity:1"
     id="path1023" />
  <path
     id="path1021"
     d="m 92.953336,46.24207 -1.718134,0.150317"
     style="fill:none;stroke:#7f7f7f;stroke-width:0.88000005;stroke-miterlimit:4;stroke-dasharray:none;stroke-opacity:1" />
  <path
     id="path1019"
     d="M 8.764798,53.607613 7.046664,53.75793"
     style="fill:none;stroke:#7f7f7f;stroke-width:0.88000005;stroke-miterlimit:4;stroke-dasharray:none;stroke-opacity:1" />
  <path
     id="path1017"
     d="m 46.24207,7.046664 0.150317,1.718134"
     style="fill:none;stroke:#7f7f7f;stroke-width:0.88000005;stroke-miterlimit:4;stroke-dasharray:none;stroke-opacity:1" />
  <path
     id="path1015"
     d="m 53.607613,91.235203 0.150317,1.718133"
     style="fill:none;stroke:#7f7f7f;stroke-width:0.88000005;stroke-miterlimit:4;stroke-dasharray:none;stroke-opacity:1" />
  <path
     id="path1013"
     d="m 92.462361,42.51274 -1.698496,0.299491"
     style="fill:none;stroke:#7f7f7f;stroke-width:0.88000005;stroke-miterlimit:4;stroke-dasharray:none;stroke-opacity:1" />
  <path
     id="path1011"
     d="M 9.2361347,57.187769 7.5376397,57.48726"
     style="fill:none;stroke:#7f7f7f;stroke-width:0.88000005;stroke-miterlimit:4;stroke-dasharray:none;stroke-opacity:1" />
  <path
     id="path1009"
     d="m 42.51274,7.5376397 0.299491,1.698495"
     style="fill:none;stroke:#7f7f7f;stroke-width:0.88000005;stroke-miterlimit:4;stroke-dasharray:none;stroke-opacity:1" />
  <path
     id="path1007"
     d="m 57.187769,90.763866 0.299491,1.698495"
     style="fill:none;stroke:#7f7f7f;stroke-width:0.88000005;stroke-miterlimit:4;stroke-dasharray:none;stroke-opacity:1" />
  <path
     id="path1005"
     d="m 91.648221,38.840394 -1.665929,0.446382"
     style="fill:none;stroke:#7f7f7f;stroke-width:0.88000005;stroke-miterlimit:4;stroke-dasharray:none;stroke-opacity:1" />
  <path
     id="path1003"
     d="M 10.017709,60.713224 8.3517794,61.159607"
     style="fill:none;stroke:#7f7f7f;stroke-width:0.88000005;stroke-miterlimit:4;stroke-dasharray:none;stroke-opacity:1" />
  <path
     id="path1001"
     d="m 38.840393,8.3517795 0.446383,1.6659295"
     style="fill:none;stroke:#7f7f7f;stroke-width:0.88000005;stroke-miterlimit:4;stroke-dasharray:none;stroke-opacity:1" />
  <path
     id="path999"
     d="m 60.713224,89.982292 0.446382,1.665929"
     style="fill:none;stroke:#7f7f7f;stroke-width:0.88000005;stroke-miterlimit:4;stroke-dasharray:none;stroke-opacity:1" />
  <path
     id="path997"
     d="m 90.517113,35.252977 -1.620685,0.58988"
     style="fill:none;stroke:#7f7f7f;stroke-width:0.88000005;stroke-miterlimit:4;stroke-dasharray:none;stroke-opacity:1" />
  <path
     id="path995"
     d="m 11.103571,64.157144 -1.6206837,0.58988"
     style="fill:none;stroke:#7f7f7f;stroke-width:0.88000005;stroke-miterlimit:4;stroke-dasharray:none;stroke-opacity:1" />
  <path
     id="path993"
     d="m 35.252976,9.4828874 0.58988,1.6206846"
     style="fill:none;stroke:#7f7f7f;stroke-width:0.88000005;stroke-miterlimit:4;stroke-dasharray:none;stroke-opacity:1" />
  <path
     id="path991"
     d="m 64.157143,88.896429 0.58988,1.620684"
     style="fill:none;stroke:#7f7f7f;stroke-width:0.88000005;stroke-miterlimit:4;stroke-dasharray:none;stroke-opacity:1" />
  <path
     id="path989"
     d="m 89.077646,31.777795 -1.563107,0.728887"
     style="fill:none;stroke:#7f7f7f;stroke-width:0.88000005;stroke-miterlimit:4;stroke-dasharray:none;stroke-opacity:1" />
  <path
     id="path987"
     d="m 12.485461,67.493319 -1.563107,0.728887"
     style="fill:none;stroke:#7f7f7f;stroke-width:0.88000005;stroke-miterlimit:4;stroke-dasharray:none;stroke-opacity:1" />
  <path
     id="path985"
     d="m 31.777794,10.922355 0.728887,1.563107"
     style="fill:none;stroke:#7f7f7f;stroke-width:0.88000005;stroke-miterlimit:4;stroke-dasharray:none;stroke-opacity:1" />
  <path
     id="path983"
     d="m 67.493318,87.514539 0.728887,1.563108"
     style="fill:none;stroke:#7f7f7f;stroke-width:0.88000005;stroke-miterlimit:4;stroke-dasharray:none;stroke-opacity:1" />
  <path
     id="path981"
     d="M 87.340773,28.441294 85.84714,29.303642"
     style="fill:none;stroke:#7f7f7f;stroke-width:0.88000005;stroke-miterlimit:4;stroke-dasharray:none;stroke-opacity:1" />
  <path
     id="path979"
     d="m 14.152858,70.696359 -1.493632,0.862347"
     style="fill:none;stroke:#7f7f7f;stroke-width:0.88000005;stroke-miterlimit:4;stroke-dasharray:none;stroke-opacity:1" />
  <path
     id="path977"
     d="m 28.441294,12.659227 0.862347,1.493632"
     style="fill:none;stroke:#7f7f7f;stroke-width:0.88000005;stroke-miterlimit:4;stroke-dasharray:none;stroke-opacity:1" />
  <path
     id="path975"
     d="m 70.696358,85.847142 0.862348,1.493632"
     style="fill:none;stroke:#7f7f7f;stroke-width:0.88000005;stroke-miterlimit:4;stroke-dasharray:none;stroke-opacity:1" />
  <path
     id="path973"
     d="m 85.319716,25.26887 -1.41279,0.989244"
     style="fill:none;stroke:#7f7f7f;stroke-width:0.88000005;stroke-miterlimit:4;stroke-dasharray:none;stroke-opacity:1" />
  <path
     id="path971"
     d="m 16.093074,73.741886 -1.41279,0.989245"
     style="fill:none;stroke:#7f7f7f;stroke-width:0.88000005;stroke-miterlimit:4;stroke-dasharray:none;stroke-opacity:1" />
  <path
     id="path969"
     d="m 25.268869,14.680285 0.989245,1.412789"
     style="fill:none;stroke:#7f7f7f;stroke-width:0.88000005;stroke-miterlimit:4;stroke-dasharray:none;stroke-opacity:1" />
  <path
     id="path967"
     d="m 73.741886,83.906927 0.989244,1.41279"
     style="fill:none;stroke:#7f7f7f;stroke-width:0.88000005;stroke-miterlimit:4;stroke-dasharray:none;stroke-opacity:1" />
  <path
     id="path965"
     d="m 83.029854,22.284662 -1.321196,1.108614"
     style="fill:none;stroke:#7f7f7f;stroke-width:0.88000005;stroke-miterlimit:4;stroke-dasharray:none;stroke-opacity:1" />
  <path
     id="path963"
     d="m 18.291341,76.606724 -1.321194,1.108614"
     style="fill:none;stroke:#7f7f7f;stroke-width:0.88000005;stroke-miterlimit:4;stroke-dasharray:none;stroke-opacity:1" />
  <path
     id="path961"
     d="m 22.284662,16.970147 1.108614,1.321195"
     style="fill:none;stroke:#7f7f7f;stroke-width:0.88000005;stroke-miterlimit:4;stroke-dasharray:none;stroke-opacity:1" />
  <path
     id="path959"
     d="m 76.606724,81.708659 1.108614,1.321195"
     style="fill:none;stroke:#7f7f7f;stroke-width:0.88000005;stroke-miterlimit:4;stroke-dasharray:none;stroke-opacity:1" />
  <path
     id="path949"
     d="m 77.715338,16.970146 -1.108616,1.321195"
     style="fill:none;stroke:#7f7f7f;stroke-width:0.88000005;stroke-miterlimit:4;stroke-dasharray:none;stroke-opacity:1" />
  <path
     id="path947"
     d="m 23.393278,81.708659 -1.108615,1.321195"
     style="fill:none;stroke:#7f7f7f;stroke-width:0.88000005;stroke-miterlimit:4;stroke-dasharray:none;stroke-opacity:1" />
  <path
     id="path945"
     d="m 16.970146,22.284663 1.321194,1.108615"
     style="fill:none;stroke:#7f7f7f;stroke-width:0.88000005;stroke-miterlimit:4;stroke-dasharray:none;stroke-opacity:1" />
  <path
     id="path943"
     d="m 81.708658,76.606723 1.321196,1.108615"
     style="fill:none;stroke:#7f7f7f;stroke-width:0.88000005;stroke-miterlimit:4;stroke-dasharray:none;stroke-opacity:1" />
  <path
     id="path941"
     d="m 74.73113,14.680284 -0.989245,1.412788"
     style="fill:none;stroke:#7f7f7f;stroke-width:0.88000005;stroke-miterlimit:4;stroke-dasharray:none;stroke-opacity:1" />
  <path
     id="path939"
     d="m 26.258115,83.906927 -0.989245,1.41279"
     style="fill:none;stroke:#7f7f7f;stroke-width:0.88000005;stroke-miterlimit:4;stroke-dasharray:none;stroke-opacity:1" />
  <path
     id="path937"
     d="m 14.680283,25.268871 1.412789,0.989244"
     style="fill:none;stroke:#7f7f7f;stroke-width:0.88000005;stroke-miterlimit:4;stroke-dasharray:none;stroke-opacity:1" />
  <path
     id="path935"
     d="m 83.906928,73.741886 1.412788,0.989245"
     style="fill:none;stroke:#7f7f7f;stroke-width:0.88000005;stroke-miterlimit:4;stroke-dasharray:none;stroke-opacity:1" />
  <path
     id="path933"
     d="m 71.558706,12.659226 -0.86235,1.493632"
     style="fill:none;stroke:#7f7f7f;stroke-width:0.88000005;stroke-miterlimit:4;stroke-dasharray:none;stroke-opacity:1" />
  <path
     id="path931"
     d="m 29.303643,85.847143 -0.862348,1.493631"
     style="fill:none;stroke:#7f7f7f;stroke-width:0.88000005;stroke-miterlimit:4;stroke-dasharray:none;stroke-opacity:1" />
  <path
     id="path929"
     d="m 12.659225,28.441295 1.493632,0.862349"
     style="fill:none;stroke:#7f7f7f;stroke-width:0.88000005;stroke-miterlimit:4;stroke-dasharray:none;stroke-opacity:1" />
  <path
     id="path927"
     d="m 85.847142,70.696358 1.493631,0.862348"
     style="fill:none;stroke:#7f7f7f;stroke-width:0.88000005;stroke-miterlimit:4;stroke-dasharray:none;stroke-opacity:1" />
  <path
     id="path925"
     d="M 68.222205,10.922354 67.493316,12.48546"
     style="fill:none;stroke:#7f7f7f;stroke-width:0.88000005;stroke-miterlimit:4;stroke-dasharray:none;stroke-opacity:1" />
  <path
     id="path923"
     d="m 32.506683,87.514539 -0.728888,1.563108"
     style="fill:none;stroke:#7f7f7f;stroke-width:0.88000005;stroke-miterlimit:4;stroke-dasharray:none;stroke-opacity:1" />
  <path
     id="path921"
     d="m 10.922354,31.777796 1.563106,0.728889"
     style="fill:none;stroke:#7f7f7f;stroke-width:0.88000005;stroke-miterlimit:4;stroke-dasharray:none;stroke-opacity:1" />
  <path
     id="path919"
     d="m 87.514539,67.493318 1.563107,0.728888"
     style="fill:none;stroke:#7f7f7f;stroke-width:0.88000005;stroke-miterlimit:4;stroke-dasharray:none;stroke-opacity:1" />
  <path
     id="path917"
     d="M 64.747023,9.4828865 64.157142,11.103571"
     style="fill:none;stroke:#7f7f7f;stroke-width:0.88000005;stroke-miterlimit:4;stroke-dasharray:none;stroke-opacity:1" />
  <path
     id="path915"
     d="m 35.842857,88.89643 -0.58988,1.620683"
     style="fill:none;stroke:#7f7f7f;stroke-width:0.88000005;stroke-miterlimit:4;stroke-dasharray:none;stroke-opacity:1" />
  <path
     id="path913"
     d="M 9.4828868,35.252978 11.10357,35.842859"
     style="fill:none;stroke:#7f7f7f;stroke-width:0.88000005;stroke-miterlimit:4;stroke-dasharray:none;stroke-opacity:1" />
  <path
     id="path911"
     d="m 88.896429,64.157143 1.620684,0.589881"
     style="fill:none;stroke:#7f7f7f;stroke-width:0.88000005;stroke-miterlimit:4;stroke-dasharray:none;stroke-opacity:1" />
  <path
     id="path909"
     d="M 61.159606,8.3517785 60.713222,10.017708"
     style="fill:none;stroke:#7f7f7f;stroke-width:0.88000005;stroke-miterlimit:4;stroke-dasharray:none;stroke-opacity:1" />
  <path
     id="path907"
     d="m 39.286778,89.982293 -0.446384,1.665928"
     style="fill:none;stroke:#7f7f7f;stroke-width:0.88000005;stroke-miterlimit:4;stroke-dasharray:none;stroke-opacity:1" />
  <path
     id="path905"
     d="m 8.3517789,38.840395 1.6659291,0.446384"
     style="fill:none;stroke:#7f7f7f;stroke-width:0.88000005;stroke-miterlimit:4;stroke-dasharray:none;stroke-opacity:1" />
  <path
     id="path903"
     d="m 89.982293,60.713223 1.665928,0.446384"
     style="fill:none;stroke:#7f7f7f;stroke-width:0.88000005;stroke-miterlimit:4;stroke-dasharray:none;stroke-opacity:1" />
  <path
     id="path901"
     d="M 57.48726,7.5376388 57.187768,9.2361336"
     style="fill:none;stroke:#7f7f7f;stroke-width:0.88000005;stroke-miterlimit:4;stroke-dasharray:none;stroke-opacity:1" />
  <path
     id="path899"
     d="M 42.812232,90.763866 42.51274,92.462361"
     style="fill:none;stroke:#7f7f7f;stroke-width:0.88000005;stroke-miterlimit:4;stroke-dasharray:none;stroke-opacity:1" />
  <path
     id="path897"
     d="m 7.5376393,42.51274 1.6984946,0.299493"
     style="fill:none;stroke:#7f7f7f;stroke-width:0.88000005;stroke-miterlimit:4;stroke-dasharray:none;stroke-opacity:1" />
  <path
     id="path895"
     d="m 90.763865,57.187769 1.698496,0.299491"
     style="fill:none;stroke:#7f7f7f;stroke-width:0.88000005;stroke-miterlimit:4;stroke-dasharray:none;stroke-opacity:1" />
  <path
     id="path893"
     d="M 53.75793,7.0466632 53.607611,8.7647971"
     style="fill:none;stroke:#7f7f7f;stroke-width:0.88000005;stroke-miterlimit:4;stroke-dasharray:none;stroke-opacity:1" />
  <path
     id="path891"
     d="m 46.392389,91.235203 -0.150318,1.718133"
     style="fill:none;stroke:#7f7f7f;stroke-width:0.88000005;stroke-miterlimit:4;stroke-dasharray:none;stroke-opacity:1" />
  <path
     id="path889"
     d="M 7.0466637,46.242071 8.7647974,46.39239"
     style="fill:none;stroke:#7f7f7f;stroke-width:0.88000005;stroke-miterlimit:4;stroke-dasharray:none;stroke-opacity:1" />
  <path
     id="path972"
     d="m 91.235202,53.607612 1.718134,0.150318"
     style="fill:none;stroke:#7f7f7f;stroke-width:0.88000005;stroke-miterlimit:4;stroke-dasharray:none;stroke-opacity:1" />
  <g
     id="text818"
     style="font-style:normal;font-weight:normal;font-size:40px;line-height:1.25;font-family:sans-serif;letter-spacing:0px;word-spacing:0px;fill:#7f7f7f;fill-opacity:1;stroke:none"
     aria-label="90">
    <path
       id="path832"
       style="font-style:normal;font-variant:normal;font-weight:bold;font-stretch:normal;font-size:5.33333349px;font-family:'Liberation Sans';-inkscape-font-specification:'Liberation Sans Bold';fill:#7f7f7f;fill-opacity:1"
       d="m 49.643229,2.9817708 q 0,0.9765625 -0.356771,1.4609375 -0.35677,0.484375 -1.01302,0.484375 -0.23698,0 -0.427084,-0.049479 Q 47.658854,4.828125 47.518229,4.7239583 47.377604,4.6197917 47.278646,4.4557292 47.182292,4.2916666 47.125,4.0651041 L 47.8125,3.96875 q 0.05208,0.1953125 0.169271,0.2890625 0.119792,0.09375 0.299479,0.09375 0.148438,0 0.265625,-0.070312 0.117188,-0.070312 0.200521,-0.2135417 0.08333,-0.1432292 0.127604,-0.3619792 0.04687,-0.2213541 0.04948,-0.5208333 -0.05208,0.1015625 -0.138021,0.1796875 -0.08594,0.078125 -0.195312,0.1302083 -0.106771,0.052083 -0.229167,0.080729 -0.122396,0.026042 -0.247396,0.026042 -0.239583,0 -0.434895,-0.083333 -0.195313,-0.085937 -0.333334,-0.2447916 -0.138021,-0.1588542 -0.213541,-0.3828126 -0.07292,-0.2265625 -0.07292,-0.5104166 0,-0.2916667 0.08594,-0.5208334 0.08854,-0.2291667 0.252605,-0.3854167 0.164062,-0.1588541 0.401041,-0.2395833 0.239584,-0.083333 0.541667,-0.083333 0.317708,0 0.559896,0.109375 0.244791,0.1067708 0.408854,0.3333333 0.164062,0.2239583 0.247396,0.5703125 0.08594,0.34375 0.08594,0.8177084 z M 48.869792,2.4687499 q 0,-0.15625 -0.03646,-0.2916666 -0.03385,-0.1380209 -0.104166,-0.2369792 -0.07031,-0.1015625 -0.171875,-0.1588542 -0.101563,-0.057292 -0.234375,-0.057292 -0.122396,0 -0.21875,0.046875 -0.09635,0.044271 -0.164063,0.1302084 -0.06771,0.085937 -0.104166,0.2083333 -0.03385,0.1223959 -0.03385,0.2760417 0,0.1432292 0.03385,0.2682292 0.03385,0.1223958 0.09896,0.2135416 0.0651,0.088542 0.164062,0.140625 0.09896,0.049479 0.226563,0.049479 0.101562,0 0.197917,-0.036458 0.09896,-0.036458 0.174479,-0.109375 0.07813,-0.072917 0.125,-0.1822917 0.04687,-0.1119792 0.04687,-0.2604167 z" />
    <path
       id="path834"
       style="font-style:normal;font-variant:normal;font-weight:bold;font-stretch:normal;font-size:5.33333349px;font-family:'Liberation Sans';-inkscape-font-specification:'Liberation Sans Bold';fill:#7f7f7f;fill-opacity:1"
       d="m 52.591146,3.0390624 q 0,0.5260417 -0.09635,0.8880209 -0.09635,0.359375 -0.268229,0.5833334 -0.169271,0.2213541 -0.403646,0.3203125 -0.231771,0.096354 -0.507813,0.096354 -0.276041,0 -0.507812,-0.096354 -0.231771,-0.096354 -0.398438,-0.3177084 -0.166666,-0.2239583 -0.260416,-0.5833333 -0.09375,-0.3619792 -0.09375,-0.8906251 0,-0.5546875 0.09115,-0.9166666 0.09375,-0.3645834 0.263021,-0.5807292 0.169271,-0.2161459 0.403646,-0.3020834 0.236979,-0.088542 0.523438,-0.088542 0.268229,0 0.497395,0.088542 0.231771,0.085937 0.398438,0.3020834 0.169271,0.2161458 0.263021,0.5807292 0.09635,0.3619791 0.09635,0.9166666 z m -0.734375,0 q 0,-0.3880208 -0.02865,-0.640625 -0.02865,-0.2552083 -0.09115,-0.4036458 -0.0625,-0.1510417 -0.164062,-0.2109375 -0.09896,-0.059896 -0.242188,-0.059896 -0.153646,0 -0.257812,0.0625 -0.104167,0.059896 -0.169271,0.2109375 -0.0625,0.1510417 -0.09115,0.4062501 -0.02604,0.2526041 -0.02604,0.6354166 0,0.3776042 0.02865,0.6302084 0.02865,0.2526042 0.09115,0.40625 0.0625,0.1510417 0.164063,0.2135417 0.101562,0.0625 0.25,0.0625 0.143229,0 0.244791,-0.0625 0.101563,-0.0625 0.166667,-0.2135417 0.0651,-0.1536458 0.09375,-0.40625 0.03125,-0.2526042 0.03125,-0.6302084 z" />
  </g>
  <g
     transform="rotate(180,49.78196,97.072887)"
     id="text822"
     style="font-style:normal;font-weight:normal;font-size:40px;line-height:1.25;font-family:sans-serif;letter-spacing:0px;word-spacing:0px;fill:#7f7f7f;fill-opacity:1;stroke:none"
     aria-label="270">
    <path
       id="path844"
       style="font-style:normal;font-variant:normal;font-weight:bold;font-stretch:normal;font-size:5.33333349px;font-family:'Liberation Sans';-inkscape-font-specification:'Liberation Sans Bold';fill:#7f7f7f;fill-opacity:1"
       d="m 45.659894,98.875 v -0.507813 q 0.125,-0.273437 0.304688,-0.492187 0.179687,-0.221354 0.375,-0.403646 0.197917,-0.184896 0.390625,-0.341146 0.195312,-0.158854 0.348958,-0.304687 0.15625,-0.148438 0.252604,-0.296875 0.09635,-0.148438 0.09635,-0.315104 0,-0.244792 -0.122396,-0.36198 -0.122396,-0.117187 -0.359375,-0.117187 -0.234375,0 -0.359375,0.127604 -0.122396,0.125 -0.158854,0.377604 l -0.73698,-0.04167 q 0.02604,-0.216146 0.106771,-0.40625 0.08073,-0.190105 0.229167,-0.333334 0.151041,-0.143229 0.375,-0.223958 0.226562,-0.08333 0.539062,-0.08333 0.296875,0 0.526042,0.07031 0.229167,0.06771 0.385417,0.200521 0.15625,0.132812 0.236979,0.325521 0.08073,0.190104 0.08073,0.434896 0,0.257812 -0.101562,0.466145 -0.101563,0.208334 -0.260417,0.385417 -0.158854,0.174479 -0.354167,0.328125 -0.192708,0.153646 -0.375,0.299479 -0.182291,0.145834 -0.333333,0.294271 -0.148438,0.148438 -0.221354,0.317708 h 1.703125 V 98.875 Z" />
    <path
       id="path846"
       style="font-style:normal;font-variant:normal;font-weight:bold;font-stretch:normal;font-size:5.33333349px;font-family:'Liberation Sans';-inkscape-font-specification:'Liberation Sans Bold';fill:#7f7f7f;fill-opacity:1"
       d="m 51.175519,95.786458 q -0.247395,0.390625 -0.46875,0.757813 -0.21875,0.367187 -0.382812,0.739583 -0.164063,0.369792 -0.260417,0.763021 Q 49.96979,98.4375 49.96979,98.875 h -0.763021 q 0,-0.434896 0.101563,-0.825521 0.104167,-0.393229 0.28125,-0.765625 0.177083,-0.372396 0.411458,-0.734375 0.234375,-0.364583 0.494792,-0.742187 h -1.822917 v -0.601563 h 2.502604 z" />
    <path
       id="path848"
       style="font-style:normal;font-variant:normal;font-weight:bold;font-stretch:normal;font-size:5.33333349px;font-family:'Liberation Sans';-inkscape-font-specification:'Liberation Sans Bold';fill:#7f7f7f;fill-opacity:1"
       d="m 54.159894,97.039062 q 0,0.526042 -0.09635,0.888021 -0.09635,0.359375 -0.268229,0.583334 -0.169271,0.221354 -0.403646,0.320312 -0.231771,0.09635 -0.507812,0.09635 -0.276042,0 -0.507813,-0.09635 -0.231771,-0.09635 -0.398437,-0.317708 -0.166667,-0.223959 -0.260417,-0.583334 -0.09375,-0.361979 -0.09375,-0.890625 0,-0.554687 0.09115,-0.916666 0.09375,-0.364584 0.263021,-0.580729 0.16927,-0.216146 0.403646,-0.302084 0.236979,-0.08854 0.523437,-0.08854 0.268229,0 0.497396,0.08854 0.231771,0.08594 0.398437,0.302084 0.169271,0.216145 0.263021,0.580729 0.09635,0.361979 0.09635,0.916666 z m -0.734375,0 q 0,-0.38802 -0.02865,-0.640625 -0.02865,-0.255208 -0.09115,-0.403645 -0.0625,-0.151042 -0.164063,-0.210938 -0.09896,-0.0599 -0.242187,-0.0599 -0.153646,0 -0.257813,0.0625 -0.104166,0.0599 -0.169271,0.210938 -0.0625,0.151041 -0.09115,0.40625 -0.02604,0.252604 -0.02604,0.635416 0,0.377605 0.02865,0.630209 0.02865,0.252604 0.09115,0.40625 0.0625,0.151041 0.164062,0.213541 0.101563,0.0625 0.25,0.0625 0.143229,0 0.244792,-0.0625 0.101562,-0.0625 0.166666,-0.213541 0.0651,-0.153646 0.09375,-0.40625 0.03125,-0.252604 0.03125,-0.630209 z" />
  </g>
  <g
     id="text826"
     style="font-style:normal;font-weight:normal;font-size:40px;line-height:1.25;font-family:sans-serif;letter-spacing:0px;word-spacing:0px;fill:#7f7f7f;fill-opacity:1;stroke:none"
     transform="rotate(-90,-0.125,0.125)"
     aria-label="0">
    <path
       id="path851"
       style="font-style:normal;font-variant:normal;font-weight:bold;font-stretch:normal;font-size:5.33333349px;font-family:'Liberation Sans';-inkscape-font-specification:'Liberation Sans Bold';fill:#7f7f7f;fill-opacity:1"
       d="m -48.645835,3.2041654 q 0,0.5260417 -0.09635,0.8880209 -0.09635,0.359375 -0.268229,0.5833333 -0.169271,0.2213542 -0.403646,0.3203125 -0.231771,0.096354 -0.507812,0.096354 -0.276042,0 -0.507813,-0.096354 -0.231771,-0.096354 -0.398437,-0.3177083 -0.166667,-0.2239584 -0.260417,-0.5833334 -0.09375,-0.3619791 -0.09375,-0.890625 0,-0.5546875 0.09115,-0.9166667 0.09375,-0.3645833 0.263021,-0.5807292 0.169271,-0.2161458 0.403646,-0.3020833 0.236979,-0.088542 0.523437,-0.088542 0.268229,0 0.497396,0.088542 0.231771,0.085937 0.398437,0.3020833 0.169271,0.2161459 0.263021,0.5807292 0.09635,0.3619792 0.09635,0.9166667 z m -0.734375,0 q 0,-0.3880208 -0.02865,-0.640625 -0.02865,-0.2552084 -0.09115,-0.4036459 -0.0625,-0.1510416 -0.164063,-0.2109375 -0.09896,-0.059896 -0.242187,-0.059896 -0.153646,0 -0.257813,0.0625 -0.104166,0.059896 -0.169271,0.2109375 -0.0625,0.1510417 -0.09115,0.40625 -0.02604,0.2526042 -0.02604,0.6354167 0,0.3776042 0.02865,0.6302084 0.02865,0.2526041 0.09115,0.40625 0.0625,0.1510416 0.164062,0.2135416 0.101563,0.0625 0.25,0.0625 0.143229,0 0.244792,-0.0625 0.101562,-0.0625 0.166666,-0.2135416 0.0651,-0.1536459 0.09375,-0.40625 0.03125,-0.2526042 0.03125,-0.6302084 z" />
  </g>
  <g
     id="text830"
     style="font-style:normal;font-weight:normal;font-size:40px;line-height:1.25;font-family:sans-serif;letter-spacing:0px;word-spacing:0px;fill:#7f7f7f;fill-opacity:1;stroke:none"
     transform="rotate(90)"
     aria-label="180">
    <path
       id="path837"
       style="font-style:normal;font-variant:normal;font-weight:bold;font-stretch:normal;font-size:5.33333349px;font-family:'Liberation Sans';-inkscape-font-specification:'Liberation Sans Bold';fill:#7f7f7f;fill-opacity:1"
       d="m 45.833332,-95.243225 v -0.544271 h 0.908854 V -98.2901 l -0.880208,0.549479 v -0.575521 l 0.919271,-0.596354 h 0.692708 v 3.125 h 0.841146 v 0.544271 z" />
    <path
       id="path839"
       style="font-style:normal;font-variant:normal;font-weight:bold;font-stretch:normal;font-size:5.33333349px;font-family:'Liberation Sans';-inkscape-font-specification:'Liberation Sans Bold';fill:#7f7f7f;fill-opacity:1"
       d="m 51.268228,-96.277079 q 0,0.236979 -0.07813,0.4375 -0.07813,0.197916 -0.239583,0.34375 -0.161459,0.143229 -0.408855,0.223958 -0.247395,0.08073 -0.588541,0.08073 -0.338542,0 -0.588542,-0.08073 -0.247396,-0.08073 -0.411458,-0.223958 -0.161459,-0.145834 -0.239584,-0.34375 -0.07813,-0.197917 -0.07813,-0.432292 0,-0.200521 0.0625,-0.354167 0.0625,-0.15625 0.166667,-0.268229 0.104167,-0.111979 0.239583,-0.177083 0.135417,-0.06771 0.278646,-0.09115 v -0.01042 q -0.153646,-0.03385 -0.276041,-0.111979 -0.122396,-0.07813 -0.208334,-0.1875 -0.08594,-0.109375 -0.132812,-0.242187 -0.04427,-0.135417 -0.04427,-0.28125 0,-0.21875 0.07813,-0.398438 0.08073,-0.179687 0.234375,-0.307292 0.153646,-0.127604 0.380208,-0.195312 0.229167,-0.07031 0.528646,-0.07031 0.320313,0 0.552083,0.07292 0.234375,0.07031 0.385417,0.200521 0.151042,0.127604 0.223958,0.307292 0.07292,0.179687 0.07292,0.395833 0,0.143229 -0.04687,0.278646 -0.04427,0.132812 -0.130208,0.242187 -0.08594,0.109375 -0.210938,0.184896 -0.122396,0.07552 -0.278646,0.106771 v 0.01042 q 0.161459,0.02604 0.29948,0.09635 0.140625,0.06771 0.242187,0.179687 0.101563,0.109375 0.158854,0.265625 0.05729,0.153646 0.05729,0.348959 z m -0.84375,-1.67448 q 0,-0.109375 -0.02344,-0.20052 -0.02344,-0.09375 -0.07813,-0.158855 -0.05469,-0.06771 -0.148437,-0.104166 -0.09115,-0.03906 -0.231771,-0.03906 -0.135417,0 -0.226562,0.03906 -0.09115,0.03646 -0.145834,0.104166 -0.05469,0.06511 -0.07813,0.158855 -0.02344,0.09114 -0.02344,0.20052 0,0.09636 0.01823,0.190105 0.02083,0.09375 0.07292,0.16927 0.05208,0.07292 0.145833,0.119792 0.09375,0.04687 0.242187,0.04687 0.15625,0 0.25,-0.04687 0.09635,-0.04687 0.145834,-0.122396 0.04948,-0.07552 0.0651,-0.169271 0.01563,-0.09375 0.01563,-0.1875 z m 0.08594,1.614584 q 0,-0.111979 -0.02604,-0.216146 -0.02344,-0.104167 -0.08854,-0.182292 -0.0625,-0.08073 -0.174479,-0.127604 -0.111979,-0.04948 -0.283854,-0.04948 -0.15625,0 -0.263021,0.04948 -0.104167,0.04687 -0.169271,0.127604 -0.0625,0.08073 -0.09115,0.1875 -0.02604,0.104167 -0.02604,0.221355 0,0.13802 0.02604,0.252604 0.02865,0.114583 0.09375,0.197916 0.06771,0.08073 0.177084,0.125 0.109375,0.04427 0.273437,0.04427 0.164063,0 0.270833,-0.04427 0.106771,-0.04687 0.169271,-0.130208 0.0625,-0.08333 0.08594,-0.197917 0.02604,-0.117187 0.02604,-0.257812 z" />
    <path
       id="path841"
       style="font-style:normal;font-variant:normal;font-weight:bold;font-stretch:normal;font-size:5.33333349px;font-family:'Liberation Sans';-inkscape-font-specification:'Liberation Sans Bold';fill:#7f7f7f;fill-opacity:1"
       d="m 54.18229,-97.079163 q 0,0.526042 -0.09635,0.888021 -0.09635,0.359375 -0.268229,0.583334 -0.169271,0.221354 -0.403646,0.320312 -0.231771,0.09635 -0.507812,0.09635 -0.276042,0 -0.507813,-0.09635 -0.231771,-0.09635 -0.398437,-0.317708 -0.166667,-0.223959 -0.260417,-0.583334 -0.09375,-0.361979 -0.09375,-0.890625 0,-0.554687 0.09115,-0.916666 0.09375,-0.364584 0.263021,-0.58073 0.169271,-0.216145 0.403646,-0.302083 0.236979,-0.08854 0.523437,-0.08854 0.268229,0 0.497396,0.08854 0.231771,0.08594 0.398437,0.302083 0.169271,0.216146 0.263021,0.58073 0.09635,0.361979 0.09635,0.916666 z m -0.734375,0 q 0,-0.38802 -0.02865,-0.640625 -0.02865,-0.255208 -0.09115,-0.403646 -0.0625,-0.151041 -0.164063,-0.210937 -0.09896,-0.0599 -0.242187,-0.0599 -0.153646,0 -0.257813,0.0625 -0.104166,0.0599 -0.169271,0.210938 -0.0625,0.151041 -0.09115,0.40625 -0.02604,0.252604 -0.02604,0.635416 0,0.377605 0.02865,0.630209 0.02865,0.252604 0.09115,0.40625 0.0625,0.151041 0.164062,0.213541 0.101563,0.0625 0.25,0.0625 0.143229,0 0.244792,-0.0625 0.101562,-0.0625 0.166666,-0.213541 0.0651,-0.153646 0.09375,-0.40625 0.03125,-0.252604 0.03125,-0.630209 z" />
  </g>
  <g
     id="text885"
     style="font-style:normal;font-weight:normal;font-size:40px;line-height:1.25;font-family:sans-serif;letter-spacing:0px;word-spacing:0px;fill:#7f7f7f;fill-opacity:1;stroke:none"
     transform="rotate(-45)"
     aria-label="45">
    <path
       id="path1071"
       style="font-style:normal;font-variant:normal;font-weight:bold;font-stretch:normal;font-size:5.33333349px;font-family:'Liberation Sans';-inkscape-font-specification:'Liberation Sans Bold';fill:#7f7f7f;fill-opacity:1"
       d="m -0.67337275,24.673907 v 0.747396 H -1.3712894 v -0.747396 h -1.6692709 v -0.549479 l 1.5494792,-2.372396 h 0.81770835 v 2.377604 h 0.48958335 v 0.544271 z M -1.3712894,22.929115 q 0,-0.04427 0,-0.114583 0.0026,-0.07292 0.00521,-0.148438 0.00521,-0.07552 0.00781,-0.143229 0.00521,-0.07031 0.010417,-0.109375 -0.013021,0.02865 -0.041667,0.08333 -0.028646,0.05208 -0.065104,0.114583 -0.033854,0.0599 -0.072917,0.119792 -0.036458,0.0599 -0.065104,0.104166 l -0.8515625,1.294271 h 1.0729167 z" />
    <path
       id="path1073"
       style="font-style:normal;font-variant:normal;font-weight:bold;font-stretch:normal;font-size:5.33333349px;font-family:'Liberation Sans';-inkscape-font-specification:'Liberation Sans Bold';fill:#7f7f7f;fill-opacity:1"
       d="m 2.6651689,24.199949 q 0,0.276041 -0.088542,0.510416 -0.085937,0.231771 -0.2578126,0.403646 -0.171875,0.169271 -0.4270833,0.265625 -0.2526042,0.09375 -0.5859375,0.09375 -0.30729169,0 -0.53645836,-0.07292 Q 0.54016886,25.324949 0.38131469,25.19474 0.22506469,25.061928 0.13391885,24.884844 0.04537718,24.707761 0.01152301,24.504636 l 0.73177086,-0.0599 q 0.0208333,0.08594 0.0572917,0.166667 0.0390625,0.08073 0.10677083,0.143229 0.0677083,0.0625 0.16666663,0.101563 0.098958,0.03646 0.2395834,0.03646 0.2734375,0 0.4348958,-0.174479 0.1640625,-0.174479 0.1640625,-0.502604 0,-0.145834 -0.041667,-0.263021 -0.039063,-0.117188 -0.1145834,-0.200521 -0.072917,-0.08333 -0.1822916,-0.127604 -0.1067709,-0.04427 -0.2447917,-0.04427 -0.1822917,0 -0.2994792,0.07031 -0.11718749,0.06771 -0.19791666,0.166667 H 0.11829385 L 0.24589802,21.752032 H 2.4516273 v 0.544271 H 0.90996054 l -0.0598958,0.927083 q 0.10937501,-0.09635 0.2760417,-0.164062 0.1666667,-0.07031 0.3880208,-0.07031 0.2708334,0 0.484375,0.08854 0.2135417,0.08854 0.3619792,0.247396 0.1484375,0.158854 0.2265625,0.382812 0.078125,0.221354 0.078125,0.492188 z" />
  </g>
  <path
     id="path1036"
     style="fill:none;stroke:#7f7f7f;stroke-width:0.88000005;stroke-miterlimit:4;stroke-dasharray:none;stroke-opacity:1"
     d="m 18.887302,18.887302 2.489015,2.489015 m 57.247366,57.247366 2.489015,2.489015 m 0,-62.225396 -2.489015,2.489015 m -57.247366,57.247366 -2.489015,2.489015" />
  <g
     id="text1040"
     style="font-style:normal;font-weight:normal;font-size:40px;line-height:1.25;font-family:sans-serif;letter-spacing:0px;word-spacing:0px;fill:#7f7f7f;fill-opacity:1;stroke:none"
     transform="rotate(45)"
     aria-label="135">
    <path
       id="path1050"
       style="font-style:normal;font-variant:normal;font-weight:bold;font-stretch:normal;font-size:5.33333349px;font-family:'Liberation Sans';-inkscape-font-specification:'Liberation Sans Bold';fill:#7f7f7f;fill-opacity:1"
       d="m 66.694405,-45.190655 v -0.544271 h 0.908854 v -2.502604 l -0.880209,0.549479 v -0.575521 l 0.919271,-0.596354 h 0.692709 v 3.125 h 0.841146 v 0.544271 z" />
    <path
       id="path1052"
       style="font-style:normal;font-variant:normal;font-weight:bold;font-stretch:normal;font-size:5.33333349px;font-family:'Liberation Sans';-inkscape-font-specification:'Liberation Sans Bold';fill:#7f7f7f;fill-opacity:1"
       d="m 72.100655,-46.208884 q 0,0.25 -0.08333,0.450521 -0.08073,0.197917 -0.244791,0.338542 -0.164063,0.140625 -0.408855,0.216145 -0.242187,0.07292 -0.565104,0.07292 -0.359375,0 -0.606771,-0.09115 -0.244791,-0.09115 -0.403645,-0.239583 -0.15625,-0.151042 -0.23698,-0.341146 -0.07813,-0.190104 -0.101562,-0.385417 l 0.744792,-0.0651 q 0.01563,0.117188 0.05729,0.216146 0.04427,0.09635 0.117188,0.166667 0.07292,0.07031 0.177083,0.109375 0.106771,0.03646 0.25,0.03646 0.263021,0 0.408854,-0.130208 0.145834,-0.130209 0.145834,-0.398438 0,-0.164062 -0.07031,-0.263021 -0.06771,-0.09896 -0.174479,-0.151041 -0.104167,-0.05469 -0.226563,-0.07292 -0.122395,-0.01823 -0.23177,-0.01823 h -0.255209 v -0.591146 h 0.239584 q 0.109375,0 0.221354,-0.02083 0.114583,-0.02083 0.205729,-0.07552 0.09115,-0.05469 0.148437,-0.151042 0.05729,-0.09896 0.05729,-0.25 0,-0.226562 -0.127604,-0.354167 -0.125,-0.130208 -0.367188,-0.130208 -0.226562,0 -0.367187,0.125 -0.138021,0.125 -0.158854,0.354167 l -0.731771,-0.05208 q 0.03125,-0.257812 0.140625,-0.447916 0.111979,-0.190104 0.278646,-0.315104 0.169271,-0.125 0.388021,-0.184896 0.21875,-0.0625 0.463541,-0.0625 0.322917,0 0.554688,0.07813 0.231771,0.07813 0.380208,0.210937 0.148438,0.132813 0.21875,0.309896 0.07031,0.177083 0.07031,0.377604 0,0.161459 -0.04687,0.302084 -0.04687,0.138021 -0.143229,0.25 -0.09375,0.109375 -0.242188,0.190104 -0.148438,0.07813 -0.351563,0.117187 v 0.01042 q 0.226563,0.02604 0.39323,0.104167 0.166666,0.07552 0.273437,0.190104 0.106771,0.114583 0.158854,0.260417 0.05208,0.143229 0.05208,0.304687 z" />
    <path
       id="path1054"
       style="font-style:normal;font-variant:normal;font-weight:bold;font-stretch:normal;font-size:5.33333349px;font-family:'Liberation Sans';-inkscape-font-specification:'Liberation Sans Bold';fill:#7f7f7f;fill-opacity:1"
       d="m 75.113676,-46.412009 q 0,0.276042 -0.08854,0.510417 -0.08594,0.231771 -0.257813,0.403646 -0.171875,0.16927 -0.427083,0.265625 -0.252604,0.09375 -0.585938,0.09375 -0.307291,0 -0.536458,-0.07292 -0.229167,-0.07552 -0.388021,-0.205729 -0.15625,-0.132813 -0.247396,-0.309896 -0.08854,-0.177083 -0.122395,-0.380208 l 0.73177,-0.0599 q 0.02083,0.08594 0.05729,0.166666 0.03906,0.08073 0.106771,0.14323 0.06771,0.0625 0.166667,0.101562 0.09896,0.03646 0.239583,0.03646 0.273437,0 0.434896,-0.174479 0.164062,-0.174479 0.164062,-0.502604 0,-0.145833 -0.04167,-0.263021 -0.03906,-0.117187 -0.114584,-0.200521 -0.07292,-0.08333 -0.182291,-0.127604 -0.106771,-0.04427 -0.244792,-0.04427 -0.182292,0 -0.299479,0.07031 -0.117188,0.06771 -0.197917,0.166667 H 72.5668 l 0.127605,-2.065105 h 2.205729 v 0.544271 h -1.541667 l -0.0599,0.927084 q 0.109375,-0.09636 0.276042,-0.164063 0.166667,-0.07031 0.388021,-0.07031 0.270833,0 0.484375,0.08854 0.213542,0.08854 0.361979,0.247396 0.148438,0.158854 0.226563,0.382813 0.07813,0.221354 0.07813,0.492187 z" />
  </g>
  <g
     id="text1044"
     style="font-style:normal;font-weight:normal;font-size:40px;line-height:1.25;font-family:sans-serif;letter-spacing:0px;word-spacing:0px;fill:#7f7f7f;fill-opacity:1;stroke:none"
     transform="rotate(135)"
     aria-label="225">
    <path
       id="path1057"
       style="font-style:normal;font-variant:normal;font-weight:bold;font-stretch:normal;font-size:5.33333349px;font-family:'Liberation Sans';-inkscape-font-specification:'Liberation Sans Bold';fill:#7f7f7f;fill-opacity:1"
       d="m -4.0962273,-116.02296 v -0.50781 q 0.125,-0.27344 0.3046875,-0.49219 0.1796875,-0.22135 0.375,-0.40364 0.1979167,-0.1849 0.390625,-0.34115 0.1953125,-0.15885 0.3489584,-0.30469 0.15625,-0.14843 0.2526041,-0.29687 0.096354,-0.14844 0.096354,-0.31511 0,-0.24479 -0.1223958,-0.36197 -0.1223959,-0.11719 -0.3593751,-0.11719 -0.234375,0 -0.359375,0.1276 -0.1223958,0.125 -0.1588541,0.37761 l -0.7369792,-0.0417 q 0.026042,-0.21615 0.1067708,-0.40625 0.080729,-0.1901 0.2291667,-0.33333 0.1510417,-0.14323 0.375,-0.22396 0.2265625,-0.0833 0.5390625,-0.0833 0.296875,0 0.5260417,0.0703 0.2291667,0.0677 0.3854167,0.20052 0.15625,0.13281 0.2369791,0.32552 0.080729,0.1901 0.080729,0.43489 0,0.25782 -0.1015625,0.46615 -0.1015625,0.20833 -0.2604167,0.38542 -0.1588541,0.17448 -0.3541666,0.32812 -0.1927084,0.15365 -0.375,0.29948 -0.1822917,0.14583 -0.3333334,0.29427 -0.1484375,0.14844 -0.2213542,0.31771 h 1.7031251 v 0.60156 z" />
    <path
       id="path1059"
       style="font-style:normal;font-variant:normal;font-weight:bold;font-stretch:normal;font-size:5.33333349px;font-family:'Liberation Sans';-inkscape-font-specification:'Liberation Sans Bold';fill:#7f7f7f;fill-opacity:1"
       d="m -1.1274773,-116.02296 v -0.50781 q 0.125,-0.27344 0.30468749,-0.49219 0.1796875,-0.22135 0.37500001,-0.40364 0.19791667,-0.1849 0.39062501,-0.34115 0.19531251,-0.15885 0.34895834,-0.30469 0.15625001,-0.14843 0.25260418,-0.29687 0.0963542,-0.14844 0.0963542,-0.31511 0,-0.24479 -0.12239584,-0.36197 -0.12239584,-0.11719 -0.35937501,-0.11719 -0.23437501,0 -0.35937501,0.1276 -0.12239584,0.125 -0.15885417,0.37761 l -0.73697917,-0.0417 q 0.026042,-0.21615 0.10677081,-0.40625 0.0807292,-0.1901 0.22916668,-0.33333 0.15104167,-0.14323 0.37500001,-0.22396 0.22656251,-0.0833 0.53906252,-0.0833 0.296875,0 0.52604168,0.0703 0.22916667,0.0677 0.3854167,0.20052 0.15625,0.13281 0.2369791,0.32552 0.080729,0.1901 0.080729,0.43489 0,0.25782 -0.1015625,0.46615 -0.1015625,0.20833 -0.2604167,0.38542 -0.15885413,0.17448 -0.35416664,0.32812 -0.19270833,0.15365 -0.37500001,0.29948 -0.18229167,0.14583 -0.33333334,0.29427 -0.1484375,0.14844 -0.22135417,0.31771 H 1.4402311 v 0.60156 z" />
    <path
       id="path1061"
       style="font-style:normal;font-variant:normal;font-weight:bold;font-stretch:normal;font-size:5.33333349px;font-family:'Liberation Sans';-inkscape-font-specification:'Liberation Sans Bold';fill:#7f7f7f;fill-opacity:1"
       d="m 4.4740853,-117.24431 q 0,0.27604 -0.088542,0.51042 -0.085937,0.23177 -0.2578125,0.40364 -0.171875,0.16927 -0.4270834,0.26563 -0.2526041,0.0937 -0.5859375,0.0937 -0.3072917,0 -0.5364583,-0.0729 -0.2291667,-0.0755 -0.3880209,-0.20573 -0.15625,-0.13281 -0.2473958,-0.3099 -0.088542,-0.17708 -0.1223959,-0.3802 l 0.7317709,-0.0599 q 0.020833,0.0859 0.057292,0.16667 0.039063,0.0807 0.1067708,0.14323 0.067708,0.0625 0.1666667,0.10156 0.098958,0.0365 0.2395833,0.0365 0.2734375,0 0.4348959,-0.17448 0.1640625,-0.17448 0.1640625,-0.50261 0,-0.14583 -0.041667,-0.26302 -0.039063,-0.11718 -0.1145833,-0.20052 -0.072917,-0.0833 -0.1822917,-0.1276 -0.1067708,-0.0443 -0.2447917,-0.0443 -0.1822917,0 -0.2994792,0.0703 -0.1171875,0.0677 -0.1979166,0.16667 H 1.9272102 l 0.1276042,-2.06511 h 2.2057292 v 0.54427 H 2.7188769 l -0.059896,0.92709 q 0.109375,-0.0964 0.2760417,-0.16407 0.1666667,-0.0703 0.3880209,-0.0703 0.2708333,0 0.484375,0.0885 0.2135416,0.0885 0.3619791,0.2474 0.1484376,0.15885 0.2265626,0.38281 0.078125,0.22136 0.078125,0.49219 z" />
  </g>
  <g
     id="text1048"
     style="font-style:normal;font-weight:normal;font-size:40px;line-height:1.25;font-family:sans-serif;letter-spacing:0px;word-spacing:0px;fill:#7f7f7f;fill-opacity:1;stroke:none"
     transform="rotate(-135)"
     aria-label="315">
    <path
       id="path1064"
       style="font-style:normal;font-variant:normal;font-weight:bold;font-stretch:normal;font-size:5.33333349px;font-family:'Liberation Sans';-inkscape-font-specification:'Liberation Sans Bold';fill:#7f7f7f;fill-opacity:1"
       d="m -72.620605,-46.128932 q 0,0.25 -0.08333,0.450521 -0.08073,0.197917 -0.244791,0.338542 -0.164063,0.140625 -0.408855,0.216146 -0.242187,0.07292 -0.565104,0.07292 -0.359375,0 -0.606771,-0.09115 -0.244791,-0.09114 -0.403645,-0.239583 -0.15625,-0.151042 -0.23698,-0.341146 -0.07813,-0.190104 -0.101562,-0.385416 l 0.744792,-0.06511 q 0.01563,0.117188 0.05729,0.216146 0.04427,0.09635 0.117188,0.166667 0.07292,0.07031 0.177083,0.109375 0.106771,0.03646 0.25,0.03646 0.263021,0 0.408854,-0.130208 0.145834,-0.130208 0.145834,-0.398438 0,-0.164062 -0.07031,-0.26302 -0.06771,-0.09896 -0.174479,-0.151042 -0.104167,-0.05469 -0.226563,-0.07292 -0.122395,-0.01823 -0.23177,-0.01823 h -0.255209 v -0.591146 h 0.239584 q 0.109375,0 0.221354,-0.02083 0.114583,-0.02083 0.205729,-0.07552 0.09115,-0.05469 0.148437,-0.151042 0.05729,-0.09896 0.05729,-0.25 0,-0.226562 -0.127604,-0.354166 -0.125,-0.130209 -0.367188,-0.130209 -0.226562,0 -0.367187,0.125 -0.138021,0.125 -0.158854,0.354167 l -0.731771,-0.05208 q 0.03125,-0.257813 0.140625,-0.447917 0.111979,-0.190104 0.278646,-0.315104 0.169271,-0.125 0.388021,-0.184896 0.21875,-0.0625 0.463541,-0.0625 0.322917,0 0.554688,0.07813 0.231771,0.07813 0.380208,0.210938 0.148438,0.132812 0.21875,0.309895 0.07031,0.177084 0.07031,0.377605 0,0.161458 -0.04687,0.302083 -0.04687,0.138021 -0.14323,0.25 -0.09375,0.109375 -0.242187,0.190104 -0.148438,0.07813 -0.351563,0.117188 v 0.01042 q 0.226563,0.02604 0.39323,0.104167 0.166666,0.07552 0.273437,0.190104 0.106771,0.114583 0.158854,0.260417 0.05208,0.143229 0.05208,0.304687 z" />
    <path
       id="path1066"
       style="font-style:normal;font-variant:normal;font-weight:bold;font-stretch:normal;font-size:5.33333349px;font-family:'Liberation Sans';-inkscape-font-specification:'Liberation Sans Bold';fill:#7f7f7f;fill-opacity:1"
       d="m -72.089355,-45.110703 v -0.54427 h 0.908854 v -2.502605 l -0.880209,0.54948 v -0.575521 l 0.919271,-0.596354 h 0.692709 v 3.125 h 0.841145 v 0.54427 z" />
    <path
       id="path1068"
       style="font-style:normal;font-variant:normal;font-weight:bold;font-stretch:normal;font-size:5.33333349px;font-family:'Liberation Sans';-inkscape-font-specification:'Liberation Sans Bold';fill:#7f7f7f;fill-opacity:1"
       d="m -66.638835,-46.332057 q 0,0.276042 -0.08854,0.510417 -0.08594,0.231771 -0.257813,0.403646 -0.171875,0.169271 -0.427083,0.265625 -0.252604,0.09375 -0.585938,0.09375 -0.307291,0 -0.536458,-0.07292 -0.229167,-0.07552 -0.388021,-0.205729 -0.15625,-0.132813 -0.247396,-0.309896 -0.08854,-0.177083 -0.122395,-0.380208 l 0.73177,-0.0599 q 0.02083,0.08594 0.05729,0.166667 0.03906,0.08073 0.106771,0.143229 0.06771,0.0625 0.166667,0.101562 0.09896,0.03646 0.239583,0.03646 0.273437,0 0.434896,-0.17448 0.164062,-0.174479 0.164062,-0.502604 0,-0.145833 -0.04167,-0.263021 -0.03906,-0.117187 -0.114584,-0.20052 -0.07292,-0.08333 -0.182291,-0.127605 -0.106771,-0.04427 -0.244792,-0.04427 -0.182292,0 -0.299479,0.07031 -0.117188,0.06771 -0.197917,0.166667 h -0.713542 l 0.127605,-2.065104 h 2.205729 v 0.54427 h -1.541667 l -0.0599,0.927084 q 0.109375,-0.09635 0.276042,-0.164063 0.166667,-0.07031 0.388021,-0.07031 0.270833,0 0.484375,0.08854 0.213541,0.08854 0.361979,0.247396 0.148437,0.158854 0.226562,0.382813 0.07813,0.221354 0.07813,0.492187 z" />
  </g>
  <circle
     r="45.5"
     cy="50"
     cx="50"
     id="AnonColrDialDegr"
     style="fill:none;stroke:#000000;stroke-width:9;stroke-miterlimit:4;stroke-opacity:0.001; pointer-events:stroke" />
  <g
     aria-label="&lt;"
     style="font-style:normal;font-weight:normal;font-size:40px;line-height:1.25;font-family:sans-serif;letter-spacing:0px;word-spacing:0px;fill:#aaaaaa;fill-opacity:1;stroke:none"
     id="text916"
     transform="matrix(1.3601036,0,0,1.2458472,-1.7180222,-12.319101)" />
  <path
     d="m 5.2999989,46.999999 v 6 l 4.1999999,-2.491694 v -1.016612 z m 85.2000001,0 v 6 l 4.2,-2.491694 v -1.016612 z"
     style="font-style:normal;font-variant:normal;font-weight:bold;font-stretch:normal;font-size:8px;line-height:1.25;font-family:monospace;-inkscape-font-specification:'monospace Bold';letter-spacing:0px;word-spacing:0px;fill:#aaaaaa;fill-opacity:1;stroke:none;stroke-width:1.30172241"
     id="AnonColrDegrRota" />
  <path
     style="color:#000000;font-style:normal;font-variant:normal;font-weight:normal;font-stretch:normal;font-size:medium;line-height:normal;font-family:sans-serif;font-variant-ligatures:normal;font-variant-position:normal;font-variant-caps:normal;font-variant-numeric:normal;font-variant-alternates:normal;font-feature-settings:normal;text-indent:0;text-align:start;text-decoration:none;text-decoration-line:none;text-decoration-style:solid;text-decoration-color:#000000;letter-spacing:normal;word-spacing:normal;text-transform:none;writing-mode:lr-tb;direction:ltr;text-orientation:mixed;dominant-baseline:auto;baseline-shift:baseline;text-anchor:start;white-space:normal;shape-padding:0;clip-rule:nonzero;display:inline;overflow:visible;visibility:visible;opacity:1;isolation:auto;mix-blend-mode:normal;color-interpolation:sRGB;color-interpolation-filters:linearRGB;solid-color:#000000;solid-opacity:1;vector-effect:none;fill:#ffffff;fill-opacity:0.39215687;fill-rule:nonzero;stroke:#000000;stroke-width:0.4;stroke-linecap:round;stroke-linejoin:bevel;stroke-miterlimit:4;stroke-dasharray:none;stroke-dashoffset:0;stroke-opacity:0.39215687;color-rendering:auto;image-rendering:auto;shape-rendering:auto;text-rendering:auto;enable-background:accumulate"
     d="m 36.070312,35.646484 -0.21289,0.210938 c -7.807974,7.807974 -7.807974,20.477182 0,28.285156 l 0.21289,0.210938 2.244141,-2.244141 -0.423828,-0.423828 -1.800781,1.800781 c -7.29123,-7.520989 -7.29123,-19.451667 0,-26.972656 l 1.800781,1.800781 0.423828,-0.423828 z m 27.859376,0 -2.244141,2.244141 0.423828,0.423828 1.800781,-1.800781 c 7.29123,7.520989 7.29123,19.451667 0,26.972656 l -1.800781,-1.800781 -0.423828,0.423828 2.244141,2.244141 0.21289,-0.210938 c 7.807974,-7.807974 7.807974,-20.477182 0,-28.285156 z"
     id="AnonColrDialScal" />
</svg>
