<?xml version="1.0" encoding="UTF-8" standalone="no"?>
<svg
   xmlns:dc="http://purl.org/dc/elements/1.1/"
   xmlns:cc="http://creativecommons.org/ns#"
   xmlns:rdf="http://www.w3.org/1999/02/22-rdf-syntax-ns#"
   xmlns:svg="http://www.w3.org/2000/svg"
   xmlns="http://www.w3.org/2000/svg"
   viewBox="0 0 4000 4700"
   height="4700"
   width="4000"
   id="svg2"
   version="1.1">
  <metadata
     id="metadata8">
    <rdf:RDF>
      <cc:Work
         rdf:about="">
        <dc:format>image/svg+xml</dc:format>
        <dc:type
           rdf:resource="http://purl.org/dc/dcmitype/StillImage" />
        <dc:title></dc:title>
      </cc:Work>
    </rdf:RDF>
  </metadata>
  <defs
     id="defs6" />
  <path
     id="path12"
     d="m 1028.6144,4664.3165 c -85.64356,-30.6526 -153.82727,-81.1935 -164.01364,-121.5737 -9.22322,-36.562 153.17144,-599.724 186.47294,-646.6628 12.0889,-17.0387 73.4433,-60.5226 136.3432,-96.6295 l 114.3632,-65.6494 16.7869,-81.8784 c 9.2327,-45.0334 21.2965,-86.1312 26.8083,-91.3293 5.5119,-5.1983 51.9634,15.1683 103.2255,45.2595 51.2623,30.0913 125.2014,64.7243 164.3091,76.9629 39.1076,12.2385 71.1047,27.9721 71.1047,34.9633 0,6.9909 -27.5457,47.6039 -61.2131,90.2504 l -61.2131,77.539 v 123.3196 c 0,116.6002 -2.3869,127.5126 -43.7996,200.2503 -71.5966,125.7544 -245.9168,381.0397 -295.4885,432.7328 -53.8582,56.1626 -88.3205,60.1571 -193.6859,22.4453 z m 1016.2357,-805.9582 c 0,-18.1739 111.2645,-113.6606 193.3046,-165.8924 38.9831,-24.8192 105.6732,-74.1916 148.2003,-109.7168 123.1605,-102.8829 135.7504,-107.7988 38.6608,-15.0957 -74.7378,71.3618 -172.4537,149.6468 -357.497,286.41 -12.4679,9.2143 -22.6687,11.1473 -22.6687,4.2949 z m -6.4436,-151.2952 c -121.3304,-9.7194 -251.9502,-35.307 -350.5942,-68.6792 -128.9959,-43.6413 -443.1757,-203.7211 -594.6784,-302.9984 -180.37601,-118.1979 -466.39452,-419.8101 -498.81255,-526.0082 -4.07942,-13.3635 5.62614,-6.9051 22.5669,15.017 57.49954,74.4064 147.35882,151.7357 314.65843,270.7818 459.47782,326.9522 791.49882,497.5508 1177.73822,605.1442 48.2862,13.4508 32.0954,14.9914 -70.8784,6.7428 z m -76.6466,-268.073 C 1753.8002,3334.078 1096.4269,2985.0753 782.55541,2812.9455 599.59744,2712.6101 493.25441,2574.3874 428.82175,2353.1703 395.4901,2238.732 368.3336,2032.9974 371.10305,1915.9 c 1.20348,-50.8863 5.84619,-33.7313 20.32028,75.0832 22.1066,166.1959 65.71669,304.6253 128.21562,406.9885 51.8308,84.8904 225.65421,260.131 320.27875,322.8903 228.9167,151.8268 1454.7609,798.5282 1490.9115,786.5388 8.139,-2.699 -48.5273,-44.6333 -125.9252,-93.1861 -77.3979,-48.5534 -143.2661,-90.1831 -146.3736,-92.511 -5.0758,-3.8017 -23.7135,-229.8363 -25.7523,-312.3181 l -0.8148,-32.9778 -95.9414,47.9729 c -52.7679,26.3851 -139.7222,57.6639 -193.2317,69.5082 -158.5936,35.1053 -195.0748,19.6066 -716.0109,-304.1933 C 952.35695,2743.4367 849.29714,2681.5069 797.75748,2652.0743 623.10476,2552.3354 532.18,2393.913 471.42209,2083.486 457.91582,2014.4796 446.64792,1930.8178 446.38226,1897.5714 l -0.48331,-60.4487 -169.2796,-80.5045 c -121.70403,-57.879 -171.98492,-76.1493 -178.90563,-65.0082 -16.303516,26.246 -30.436512,251.1536 -28.480746,453.2337 2.904983,300.1623 56.862566,583.5395 164.590496,864.4051 59.84856,156.0356 58.18491,176.2887 -8.51284,103.6338 C 132.15478,3011.4065 59.252851,2816.2026 21.118288,2566.1335 5.8594043,2466.072 8.6300334,1595.6783 24.256885,1580.1598 c 5.007953,-4.9729 35.19633,13.8078 67.085205,41.7354 98.58196,86.3358 219.31418,142.2723 619.70621,287.1168 221.33307,80.0687 244.24866,94.4069 70.61183,44.1814 -59.66524,-17.2585 -110.20904,-29.6612 -112.31976,-27.5611 -2.1106,2.1 1.82782,43.6201 8.75206,92.267 8.27953,58.1673 30.114,123.572 63.77548,191.0377 149.18294,298.9991 569.97409,570.8913 835.48359,539.8439 90.6462,-10.5996 189.9356,-49.1767 249.8331,-97.0678 26.7432,-21.3824 56.2127,-38.8287 65.488,-38.7692 9.2755,0.065 66.1571,35.2822 126.4039,78.2735 60.2464,42.9912 150.7711,100.7187 201.1655,128.283 l 91.6264,50.1172 v 138.1634 c 0,182.245 25.881,247.5196 113.4141,286.0436 l 59.2627,26.0822 47.5573,-35.6002 c 26.1566,-19.5804 83.9906,-70.1403 128.5199,-112.3555 l 80.9623,-76.7555 28.2942,28.1513 c 25.981,25.8492 26.7371,30.6996 9.2464,59.3285 -10.4762,17.1479 -62.4342,79.1388 -115.4622,137.7583 l -96.4147,106.5809 122.1882,-107.37 122.1885,-107.37 -141.7568,135.703 c -127.7883,122.3312 -178.9418,163.0288 -153.5648,122.1763 4.9739,-8.0076 -7.7319,-2.3992 -28.2352,12.463 -44.1372,31.993 -188.4196,78.6254 -243.997,78.86 -24.2303,0.1035 -131.9848,-46.6491 -282.3116,-122.4868 z m 899.0763,-301.7589 c -55.2963,-15.9203 -126.4251,-101.6765 -145.5989,-175.5402 -8.6185,-33.2017 -17.7069,-67.2831 -20.1964,-75.7368 -3.166,-10.7516 -36.3031,-3.8321 -110.2635,23.0234 -75.802,27.5243 -116.9163,35.9505 -145.2263,29.7642 -27.1209,-5.9268 -79.9817,-50.0085 -168.7691,-140.7407 -146.918,-150.1355 -236.1507,-226.7844 -252.3913,-216.798 -13.6881,8.4168 -388.1617,-68.0386 -402.3399,-82.1449 -17.5314,-17.4426 3.7495,-49.8843 43.4573,-66.2484 46.5251,-19.1738 134.7525,-8.8741 210.8421,24.6135 65.6923,28.9115 312.1279,204.8773 438.6828,313.238 146.7496,125.6524 232.4699,148.2966 344.0552,90.8857 21.1784,-10.8959 40.0455,-17.9432 41.9276,-15.6604 1.8817,2.2829 15.8123,45.3413 30.9561,95.6847 31.252,103.8924 81.5966,167.2987 142.4492,179.4076 21.9207,4.3619 39.8564,12.9792 39.8564,19.1499 0,6.1705 -1.4498,10.6983 -3.2218,10.0627 -1.7719,-0.6354 -21.6708,-6.4679 -44.2195,-12.9603 z M 2722.421,2625.6578 c 13.4683,-189.267 71.9768,-776.8366 83.2384,-835.917 14.9333,-78.3441 48.3437,-126.613 123.0226,-177.7333 61.0707,-41.8049 183.8414,-89.0165 231.4815,-89.0165 15.8244,0 42.4623,11.3476 59.1957,25.2168 l 30.4232,25.2169 -66.348,0.4265 c -47.8463,0.3075 -86.3629,10.9016 -138.1222,37.9907 -77.5069,40.5646 -189.4422,121.2576 -204.0701,147.1116 -14.2006,25.0998 -58.1735,350.2873 -81.6559,603.8591 -22.205,239.779 -49.0186,429.4115 -37.1652,262.8452 z M 1393.8507,2329.5389 c -8.0908,-47.647 -5.0144,-56.5117 33.2389,-95.7793 23.1854,-23.8001 67.2602,-53.5426 97.9439,-66.0943 30.6839,-12.5519 55.8105,-26.3194 55.8371,-30.5946 0.023,-4.2748 -46.8968,-11.6679 -104.2744,-16.4287 -98.2966,-8.1561 -456.9167,-91.5349 -527.13925,-122.5593 l -32.21738,-14.2338 32.21738,6.983 c 179.39565,38.882 493.40185,98.2761 586.35765,110.9092 63.7903,8.6693 123.6458,23.3564 133.0119,32.638 14.1143,13.9869 14.1143,16.8774 0,16.8855 -9.3661,0.01 -52.0735,16.5051 -94.9051,36.6654 -90.9765,42.8218 -147.6463,102.9411 -147.6463,156.634 0,55.649 -22.1677,45.3767 -32.4244,-15.0251 z M 3275.5561,2166.313 c -61.4582,-28.8527 -238.5879,-157.6238 -352.06,-255.9436 -74.8168,-64.826 -79.7479,-72.2315 -60.6841,-91.1357 34.7635,-34.4722 198.6129,-25.4148 316.0922,17.473 114.2966,41.7264 274.3799,122.4714 328.38,165.6333 33.8966,27.0933 36.9328,34.8736 25.7737,66.0437 -6.9571,19.4329 -33.7114,52.2562 -59.4538,72.9407 -60.2987,48.4502 -129.4793,57.1788 -198.048,24.9886 z m 640.1998,-614.7327 c -114.7721,-52.0825 -270.462,-73.0308 -414.6774,-55.7951 -151.6792,18.1274 -219.8772,18.3221 -266.3034,0.7605 -44.9763,-17.0131 -55.4246,-33.1047 -55.6739,-85.7444 -0.2594,-54.632 33.5767,-86.7123 117.6594,-111.5556 198.2611,-58.5792 393.6243,-59.9986 490.4142,-3.5629 98.5276,57.4485 211.5375,206.0809 201.1536,264.5597 -3.6531,20.5733 -9.7521,19.8455 -72.5725,-8.6619 z M 1753.5889,1280.3955 C 1416.2085,1132.592 1240.6059,1027.8998 1052.5528,862.44601 868.03315,700.1009 689.59147,625.4715 485.93787,625.4715 c -109.26398,0 -236.59182,33.02068 -350.73861,90.95906 -33.54431,17.02652 -50.030425,20.59456 -46.502613,10.06485 C 98.048177,698.58298 230.9378,615.22276 301.1518,593.22465 366.39418,572.7839 522.63089,565.9129 597.41463,580.1953 c 23.24668,4.43975 10.80948,-5.57949 -34.56677,-27.8468 -84.20827,-41.32291 -215.41112,-53.80639 -304.54628,-28.97659 -32.11043,8.94497 -94.15617,38.61108 -137.87945,65.92487 L 40.925175,638.9583 92.068848,593.1731 C 250.75594,451.11248 464.40523,420.11562 616.26804,517.12091 l 46.97699,30.00729 -43.54994,-64.38691 C 595.74268,447.32841 567.35424,388.90134 556.60947,352.90347 536.3486,285.02335 529.81033,131.40468 546.73905,120.99516 c 5.31585,-3.26877 9.66525,29.56688 9.66525,72.96812 0,105.83526 45.97942,197.23661 160.70528,319.46166 132.62047,141.28962 164.42349,158.90339 303.22582,167.93969 291.2705,18.96224 548.6421,135.85493 741.7918,336.90587 89.7621,93.4341 145.5647,168.8175 191.2378,258.3423 52.0153,101.9558 25.4643,102.4585 -199.7761,3.7827 z m 549.0006,27.157 c 0,-86.8632 -25.9829,-244.9431 -64.6932,-393.59265 -67.8891,-260.69647 -152.724,-422.66662 -266.3071,-508.44211 -90.2001,-68.11723 -278.0589,-158.00378 -451.7577,-216.15666 -100.3588,-33.5992 -137.959,-50.80063 -111.3174,-50.92563 75.6181,-0.35484 292.8592,63.54061 411.8575,121.13676 374.9366,181.47202 571.6279,501.45262 573.9823,933.76289 0.4178,76.6159 -1.6348,141.683 -4.5598,144.5933 -2.9253,2.9103 -23.7428,8.9576 -46.2616,13.4387 -40.611,8.0811 -40.943,7.7261 -40.943,-43.8146 z m 281.2752,-216.1723 c -18.9509,-20.01 -69.048,-109.38549 -111.3269,-198.61266 C 2299.6539,527.9072 2158.9103,381.22933 1833.8923,227.19521 1528.9332,82.667457 1201.8063,41.610837 972.92463,119.13815 c -55.47057,18.78907 -55.57258,18.76714 -26.46851,-5.6861 36.55698,-30.715166 162.40548,-72.169017 278.31918,-91.677191 131.1534,-22.07282312 427.6066,-8.486367 555.8917,25.476685 213.7275,56.583656 381.1777,157.024216 578.145,346.784906 226.9685,218.66392 377.8539,450.47426 390.7479,600.31838 7.7555,90.12967 -9.5493,117.49257 -80.1437,126.72457 -44.0023,5.7545 -55.8794,1.6316 -85.5515,-29.6992 z"
     style="opacity:0.15;fill:#a8a8a8;fill-opacity:0.5;stroke:#ffffff;stroke-width:2.00001;stroke-miterlimit:4;stroke-dasharray:none;stroke-opacity:1" />
</svg>
