<?xml version="1.0" standalone="no"?>
<!DOCTYPE svg PUBLIC "-//W3C//DTD SVG 20010904//EN"
 "http://www.w3.org/TR/2001/REC-SVG-20010904/DTD/svg10.dtd">
<svg version="1.0" xmlns="http://www.w3.org/2000/svg"
 width="700.000000pt" height="700.000000pt" viewBox="0 0 700.000000 700.000000"
 preserveAspectRatio="xMidYMid meet">
<metadata>
Created by potrace 1.11, written by Peter Selinger 2001-2013
</metadata>
<g transform="translate(0.000000,700.000000) scale(0.100000,-0.100000)"
fill="#000000" stroke="none">
<path d="M2430 6969 c-176 -19 -401 -89 -479 -150 -30 -24 -24 -24 62 2 74 22
76 22 147 34 25 4 54 9 65 11 71 14 312 4 440 -17 33 -6 71 -12 85 -14 64 -10
277 -76 385 -120 310 -123 589 -304 731 -473 27 -31 55 -64 63 -72 44 -45 176
-266 265 -443 163 -323 197 -377 251 -397 47 -17 144 7 175 45 31 37 15 208
-28 310 -91 217 -253 438 -496 680 -230 229 -387 346 -599 448 -84 41 -244 99
-307 112 -79 17 -122 24 -180 30 -36 3 -78 9 -95 11 -53 9 -408 11 -485 3z"/>
<path d="M1356 6802 c-7 -12 0 -235 9 -277 17 -83 62 -182 127 -277 41 -62 41
-69 0 -39 -130 91 -319 121 -487 77 -90 -24 -214 -90 -298 -159 -41 -34 -73
-64 -72 -65 2 -2 28 12 57 31 145 95 265 138 390 139 128 0 229 -22 327 -71
50 -26 52 -35 7 -27 -39 7 -237 9 -276 2 -14 -3 -47 -7 -75 -11 -67 -8 -163
-50 -260 -113 -93 -59 -139 -102 -111 -102 10 0 48 14 84 31 90 41 219 84 317
104 73 15 252 21 315 11 14 -2 45 -7 69 -11 112 -17 277 -82 401 -158 55 -34
174 -119 190 -137 6 -6 114 -98 149 -126 13 -10 38 -31 55 -45 43 -36 226
-157 314 -208 226 -131 742 -367 843 -386 27 -5 39 -2 49 10 12 15 8 29 -33
110 -106 208 -310 435 -528 588 -114 80 -370 201 -469 222 -8 2 -42 10 -75 18
-33 8 -78 18 -100 22 -22 4 -49 9 -60 11 -19 3 -70 8 -195 20 -73 6 -125 20
-180 47 -50 25 -232 199 -304 292 -25 33 -50 65 -54 70 -17 22 -63 112 -77
155 -16 45 -24 100 -29 197 -2 54 -9 72 -20 55z"/>
<path d="M2640 6781 c0 -5 8 -11 18 -14 264 -84 618 -241 772 -342 167 -111
280 -280 380 -570 33 -96 98 -341 115 -430 24 -134 36 -224 41 -305 8 -142 8
-143 52 -136 20 3 42 5 49 6 6 0 18 7 27 15 12 13 14 46 11 213 -2 108 -6 208
-9 222 -2 14 -7 48 -11 75 -19 134 -88 342 -156 471 -110 206 -296 398 -524
541 -81 51 -252 129 -369 167 -190 63 -396 109 -396 87z"/>
<path d="M5768 5125 c-1 -2 -31 -6 -66 -9 -76 -8 -175 -30 -262 -58 -126 -41
-162 -79 -164 -168 0 -49 4 -64 24 -85 41 -43 116 -59 254 -51 67 3 139 9 161
12 55 9 288 10 355 1 105 -13 201 -39 308 -83 67 -28 87 -33 93 -22 29 45 -51
187 -171 306 -76 75 -174 133 -250 147 -37 7 -276 16 -282 10z"/>
<path d="M5155 4711 c-270 -80 -418 -219 -440 -411 -4 -36 -9 -72 -10 -80 -4
-21 -14 -112 -30 -280 -3 -36 -8 -81 -10 -100 -2 -19 -6 -69 -10 -110 -4 -41
-8 -86 -10 -100 -4 -24 -8 -72 -20 -212 -3 -35 -7 -79 -10 -98 -2 -19 -7 -73
-11 -120 -3 -47 -8 -97 -10 -112 -2 -16 0 -28 5 -28 4 0 8 6 8 13 1 15 13 114
18 147 2 14 6 54 10 90 3 36 7 84 10 108 2 23 7 68 10 100 5 53 21 203 31 282
2 19 6 58 9 85 4 28 8 62 10 76 3 14 7 51 10 81 3 30 8 65 10 78 3 14 7 42 10
65 3 22 8 51 10 65 3 14 7 41 10 60 10 60 34 94 103 146 193 145 322 202 455
198 31 -1 57 0 57 3 0 10 -46 45 -77 59 -41 18 -63 17 -138 -5z"/>
<path d="M587 4643 c-10 -18 -12 -174 -12 -783 0 -464 4 -663 12 -710 7 -36
15 -81 18 -100 36 -209 140 -494 224 -610 45 -63 110 -130 126 -130 17 0 -4
76 -64 233 -95 249 -180 588 -206 827 -3 30 -8 62 -10 70 -17 65 -24 525 -11
750 13 233 21 283 50 288 21 4 94 -24 246 -96 63 -30 146 -69 184 -86 l69 -32
3 -88 c5 -142 59 -423 114 -586 58 -174 150 -332 247 -421 50 -45 213 -159
228 -159 3 0 22 -11 43 -24 94 -60 666 -408 737 -449 188 -107 340 -167 415
-162 140 10 293 56 462 141 l108 54 1 -57 c0 -32 2 -65 3 -73 2 -8 6 -64 10
-125 4 -60 9 -130 12 -155 3 -25 7 -58 8 -74 2 -15 8 -31 13 -35 6 -3 80 -50
165 -105 169 -108 252 -172 208 -161 -50 13 -962 474 -1165 589 -22 13 -89 49
-150 81 -404 214 -816 450 -925 531 -96 72 -349 329 -404 413 -78 117 -164
334 -182 461 -3 19 -7 41 -10 49 -2 8 -7 30 -10 50 -3 20 -7 52 -10 71 -3 19
-8 53 -11 75 -13 92 -22 72 -17 -40 2 -66 6 -131 8 -145 2 -14 7 -52 10 -85 7
-60 27 -178 46 -268 29 -142 121 -352 202 -462 87 -117 244 -247 378 -314 25
-12 63 -32 85 -45 22 -12 85 -46 140 -75 55 -30 114 -62 130 -71 17 -10 138
-75 270 -145 132 -70 267 -142 300 -160 33 -18 123 -65 200 -105 77 -40 145
-76 150 -80 32 -24 676 -344 754 -375 74 -29 102 -36 136 -32 94 12 225 55
313 103 35 19 61 30 57 24 -3 -5 0 -10 7 -10 14 0 47 30 227 198 62 59 117
109 122 110 5 2 9 8 9 13 0 6 -60 -43 -132 -108 -115 -102 -126 -110 -83 -58
28 33 60 69 71 80 12 11 50 54 84 95 34 41 70 85 80 96 35 42 34 61 -7 104
l-38 41 -31 -28 c-17 -15 -76 -69 -130 -120 -145 -133 -213 -185 -238 -177
-88 27 -176 95 -200 154 -31 78 -37 132 -39 336 l-1 171 -105 59 c-58 32 -191
115 -296 185 -104 69 -200 129 -211 133 -17 5 -42 -7 -104 -50 -272 -186 -544
-196 -879 -30 -383 189 -686 504 -794 826 -38 112 -61 269 -42 276 6 3 76 -13
156 -36 79 -22 151 -40 159 -40 13 1 -152 65 -355 140 -506 186 -668 263 -832
396 -61 50 -90 67 -96 57z"/>
<path d="M4844 4309 c-45 -13 -60 -34 -45 -62 42 -73 531 -442 641 -483 128
-47 284 15 350 139 20 38 22 49 13 70 -22 49 -265 186 -481 271 -154 62 -385
93 -478 65z"/>
<path d="M1960 4027 c0 -3 26 -13 58 -22 31 -9 68 -21 82 -25 38 -13 221 -58
259 -65 19 -3 37 -7 40 -9 3 -2 24 -7 46 -10 22 -4 56 -11 75 -16 50 -13 203
-38 280 -46 108 -11 114 -18 45 -50 -103 -47 -177 -103 -212 -162 -17 -28 -19
-40 -11 -85 18 -99 41 -111 51 -27 13 106 131 208 311 270 28 9 51 21 53 27 6
17 -74 42 -185 59 -20 3 -48 7 -62 10 -14 2 -41 7 -60 10 -19 2 -105 18 -190
34 -85 16 -166 31 -180 34 -14 2 -95 19 -180 36 -179 37 -220 44 -220 37z"/>
<path d="M3023 3380 c-17 -6 -43 -24 -57 -41 -42 -50 -27 -62 121 -98 71 -17
143 -33 161 -36 18 -3 63 -12 100 -19 73 -15 152 -28 192 -30 53 -3 107 -47
367 -304 95 -93 191 -182 214 -197 60 -42 101 -41 263 11 77 25 146 44 154 42
9 -2 19 -14 23 -28 53 -187 99 -262 194 -326 31 -21 106 -47 113 -39 9 8 -20
35 -37 35 -10 0 -39 11 -67 25 -74 38 -121 113 -174 283 -17 56 -37 102 -44
102 -7 0 -32 -10 -57 -22 -56 -27 -142 -48 -177 -42 -124 20 -167 46 -438 265
-283 228 -536 391 -641 415 -52 11 -178 13 -210 4z"/>
<path d="M1445 2796 c27 -64 66 -121 169 -241 143 -167 345 -360 488 -467 181
-135 656 -387 913 -486 151 -57 373 -105 554 -118 47 -3 101 -7 119 -8 55 -5
23 9 -123 54 -327 98 -692 264 -1040 473 -195 117 -740 487 -775 526 -3 4 -38
33 -78 65 -41 33 -112 101 -158 150 -76 82 -83 87 -69 52z"/>
<path d="M4163 1721 c-90 -75 -206 -162 -313 -236 -154 -105 -294 -235 -254
-235 10 0 356 259 374 279 3 3 27 24 55 46 59 48 223 204 214 205 -4 0 -38
-26 -76 -59z"/>
<path d="M2539 1673 c-5 -14 -20 -72 -32 -127 l-22 -101 -105 -62 c-143 -84
-242 -152 -261 -177 -22 -29 -104 -260 -139 -391 -4 -16 -20 -69 -34 -118 -34
-115 -95 -352 -102 -396 -3 -20 -7 -38 -9 -41 -10 -16 30 -74 75 -109 76 -60
217 -118 306 -125 83 -8 126 26 255 199 77 103 274 405 335 515 l59 104 3 185
4 185 89 118 c49 65 89 125 89 132 0 11 -84 56 -105 56 -14 0 -165 72 -285
135 -47 25 -91 45 -98 45 -7 0 -17 -12 -23 -27z"/>
</g>
</svg>
