<?xml version="1.0" encoding="UTF-8" standalone="no"?>
<svg
   xmlns:dc="http://purl.org/dc/elements/1.1/"
   xmlns:cc="http://creativecommons.org/ns#"
   xmlns:rdf="http://www.w3.org/1999/02/22-rdf-syntax-ns#"
   xmlns:svg="http://www.w3.org/2000/svg"
   xmlns="http://www.w3.org/2000/svg"
   version="1.1"
   id="svg2"
   width="308"
   height="308"
   viewBox="0 0 308 308">
  <metadata
     id="metadata8">
    <rdf:RDF>
      <cc:Work
         rdf:about="">
        <dc:format>image/svg+xml</dc:format>
        <dc:type
           rdf:resource="http://purl.org/dc/dcmitype/StillImage" />
        <dc:title></dc:title>
      </cc:Work>
    </rdf:RDF>
  </metadata>
  <defs
     id="defs6" />
  <path
     style="fill:#5b5b5b;fill-opacity:1;stroke:none;stroke-width:1;stroke-miterlimit:4;stroke-dasharray:none;stroke-opacity:1"
     d="m 91.510807,305.38549 c -5.59764,-2.0051 -10.0541,-5.31114 -10.71986,-7.95249 -0.60284,-2.39164 10.0112,-39.2297 12.18778,-42.30008 0.79012,-1.11456 4.8002,-3.95898 8.911323,-6.32084 l 7.47474,-4.29432 1.09716,-5.35588 c 0.60346,-2.94581 1.39194,-5.63414 1.75222,-5.97414 0.36024,-0.34004 3.3963,0.99222 6.74674,2.96056 3.35052,1.96836 8.18312,4.23379 10.7392,5.0344 2.55604,0.80054 4.64738,1.82972 4.64738,2.28702 0,0.45728 -1.8004,3.1139 -4.00088,5.90354 l -4.00084,5.07206 v 8.06668 c 0,7.62714 -0.156,8.34096 -2.86272,13.09896 -4.67954,8.22594 -16.07304,24.9249 -19.31302,28.3063 -3.52016,3.67376 -5.7726,3.93506 -12.659223,1.46823 z m 66.420723,-52.7201 c 0,-1.18882 7.2722,-7.43486 12.63432,-10.85147 2.54792,-1.62352 6.90676,-4.85312 9.6863,-7.17692 8.04972,-6.72986 8.8726,-7.0514 2.52686,-0.98746 -4.88484,4.66802 -11.2715,9.78886 -23.36586,18.73492 -0.8149,0.60271 -1.48162,0.72919 -1.48162,0.28093 z m -0.42114,-9.89666 c -7.93012,-0.63576 -16.46736,-2.30952 -22.9147,-4.49252 -8.43112,-2.85466 -28.96578,-13.32596 -38.867923,-19.81998 -11.7893,-7.73167 -30.48336,-27.46102 -32.60216,-34.40771 -0.26666,-0.87417 0.3677,-0.45169 1.47494,0.98232 3.75814,4.86712 9.63132,9.92546 20.56594,17.7126 30.031283,21.38692 51.732023,32.54626 76.976483,39.58426 3.15598,0.87984 2.09774,0.98062 -4.63258,0.44103 z m -5.0096,-17.53539 c -13.59216,-6.86262 -56.557783,-29.6919 -77.072303,-40.95142 -11.95806,-6.56324 -18.9086,-15.60478 -23.11988,-30.07526 -2.17856,-7.48572 -3.9535,-20.94342 -3.77248,-28.60311 0.0786,-3.32859 0.38212,-2.20645 1.32812,4.91144 1.44486,10.87135 4.29522,19.9264 8.38014,26.6223 3.3876,5.55291 14.74866,17.0159 20.93326,21.12118 14.96194,9.93142 95.082563,52.23404 97.445363,51.44976 0.53196,-0.1766 -3.17172,-2.9196 -8.23042,-6.09554 -5.05868,-3.17604 -9.36382,-5.89914 -9.5669,-6.05142 -0.33176,-0.24868 -1.54994,-15.03428 -1.68318,-20.42964 l -0.0532,-2.15716 -6.27068,3.13804 c -3.4489,1.72592 -9.13218,3.77196 -12.62956,4.54672 -10.3656,2.29634 -12.74998,1.28252 -46.798163,-19.89818 -4.86422,-3.02592 -11.60016,-7.07692 -14.96876,-9.0022 -11.41524,-6.5242 -17.35804,-16.88706 -21.32914,-37.19302 -0.88276,-4.51388 -1.61922,-9.98646 -1.6366,-12.1612 l -0.0316,-3.95412 -11.06404,-5.26604 c -7.9545,-3.78602 -11.24086,-4.98112 -11.6932,-4.25238 -1.06558,1.71686 -1.9893,16.42868 -1.86148,29.64734 0.1898,19.6345 3.71652,38.17102 10.75758,56.54324 3.91166,10.20674 3.80294,11.53158 -0.55642,6.77898 -6.08862,-6.63784 -10.85344,-19.40668 -13.34592,-35.76442 -0.99732,-6.54534 -0.81622,-63.4803 0.20514,-64.49539 0.32732,-0.3253 2.30042,0.90319 4.38466,2.73005 6.44328,5.64746 14.33428,9.30642 40.50374,18.78112 14.46622,5.2375 15.964,6.17542 4.61516,2.89 -3.8997,-1.12892 -7.20322,-1.9402 -7.34116,-1.80282 -0.138,0.1374 0.1192,2.8533 0.57202,6.03544 0.54114,3.80488 1.96824,8.0832 4.16834,12.49634 9.75052,19.55842 37.253283,37.34366 54.606863,35.31274 5.9246,-0.69338 12.41412,-3.21678 16.32896,-6.34948 1.74794,-1.39866 3.67406,-2.5399 4.28028,-2.536 0.60624,0.004 4.32398,2.30792 8.26172,5.1201 3.93766,2.81218 9.85432,6.58826 13.14808,8.39136 l 5.98868,3.2783 v 9.03768 c 0,11.92118 1.69156,16.19098 7.41268,18.71094 l 3.87338,1.70612 3.10834,-2.32872 c 1.7096,-1.28082 5.48958,-4.58806 8.4,-7.34952 l 5.29168,-5.02078 1.84928,1.84146 c 1.6981,1.69086 1.74752,2.00816 0.60436,3.88086 -0.68474,1.12168 -4.08068,5.1767 -7.5466,9.01116 l -6.3016,6.97176 7.98616,-7.02338 7.9862,-7.02338 -9.26516,8.87674 c -8.35218,8.00204 -11.69558,10.66416 -10.03694,7.99188 0.32508,-0.52378 -0.50536,-0.157 -1.84544,0.81524 -2.88478,2.09274 -12.31504,5.14314 -15.94754,5.15848 -1.5837,0.008 -8.62648,-3.05146 -18.45178,-8.0122 z m 58.76324,-19.73895 c -3.61414,-1.04142 -8.26308,-6.65098 -9.51628,-11.48262 -0.5633,-2.1718 -1.15732,-4.40118 -1.32002,-4.95413 -0.20692,-0.70331 -2.37274,-0.25068 -7.20676,1.50601 -4.9544,1.80046 -7.64162,2.35163 -9.49194,1.94698 -1.77262,-0.38772 -5.22758,-3.2712 -11.03068,-9.20626 -9.6025,-9.8208 -15.43472,-14.83465 -16.49618,-14.1814 -0.89466,0.55059 -25.3701,-4.4506 -26.29678,-5.37333 -1.14584,-1.14096 0.24506,-3.26308 2.84034,-4.3335 3.04088,-1.2542 8.80738,-0.58048 13.78056,1.61006 4.29364,1.89116 20.40056,13.4016 28.67212,20.4898 9.59148,8.2193 15.19414,9.70052 22.4873,5.94508 1.38422,-0.71272 2.61736,-1.1737 2.74038,-1.02438 0.123,0.1494 1.03346,2.96592 2.02328,6.259 2.0426,6.7959 5.3331,10.9435 9.31042,11.7356 1.43272,0.2853 2.605,0.84898 2.605,1.25264 0,0.40362 -0.0948,0.6998 -0.21058,0.65822 -0.1158,-0.0416 -1.4164,-0.4231 -2.89018,-0.84777 z m -9.04674,-33.46352 c 0.88028,-12.38048 4.70436,-50.81514 5.44042,-54.67974 0.97604,-5.12472 3.15972,-8.28212 8.0407,-11.62606 3.99156,-2.73457 12.0158,-5.822812 15.12954,-5.822812 1.03428,0 2.77532,0.742282 3.869,1.649502 l 1.98844,1.64951 -4.33648,0.0278 c -3.1272,0.02 -5.64462,0.71313 -9.0276,2.4851 -5.0658,2.65344 -12.38184,7.93182 -13.33794,9.62296 -0.92812,1.64188 -3.8022,22.91332 -5.337,39.5002 -1.4513,15.68464 -3.20384,28.08906 -2.42908,17.19346 z m -86.83482,-19.37 c -0.5288,-3.11672 -0.3277,-3.69656 2.17252,-6.26518 1.51538,-1.55684 4.39608,-3.5024 6.40156,-4.32344 2.00548,-0.82104 3.64774,-1.72162 3.6495,-2.00126 0.001,-0.27964 -3.06518,-0.76324 -6.81536,-1.07466 -6.42462,-0.53352 -29.863883,-5.98756 -34.453583,-8.01696 l -2.10572,-0.9311 2.10572,0.4568 c 11.725203,2.5434 32.248523,6.42852 38.324063,7.25488 4.16932,0.56711 8.08144,1.52784 8.69362,2.13496 0.9225,0.91492 0.9225,1.10401 0,1.10455 -0.61218,3.1e-4 -3.4035,1.07962 -6.20296,2.3984 -5.94618,2.80106 -9.6501,6.73364 -9.6501,10.24586 0,3.64018 -1.44886,2.96822 -2.11926,-0.98285 z m 122.98748,-10.67706 c -4.01686,-1.88734 -15.594,-10.31066 -23.0105,-16.74202 -4.88998,-4.24048 -5.21226,-4.72488 -3.96628,-5.96146 2.27214,-2.25492 12.98126,-1.66244 20.65966,1.14296 7.47038,2.72944 17.93334,8.01122 21.46278,10.83454 2.21546,1.77226 2.4139,2.2812 1.68456,4.32014 -0.45472,1.27114 -2.20338,3.41822 -3.88588,4.77126 -3.9411,3.16927 -8.46272,3.74022 -12.94434,1.63458 z m 41.8432,-40.21144 c -7.50146,-3.406852 -17.67728,-4.777152 -27.10314,-3.649702 -9.91366,1.18576 -14.37108,1.1985 -17.40548,0.0499 -2.93964,-1.1129 -3.62252,-2.16547 -3.63882,-5.60879 -0.016,-3.57366 2.19458,-5.67211 7.69018,-7.2972 12.95824,-3.83181 25.7271,-3.92468 32.05324,-0.23304 6.43974,3.75787 13.82602,13.48034 13.14734,17.305602 -0.23878,1.34577 -0.6374,1.29816 -4.74332,-0.5666 z M 138.89483,84.033388 c -22.05104,-9.66824 -33.52836,-16.51649 -45.819423,-27.33932 -12.06014,-10.619449 -23.723,-15.501165 -37.03372,-15.501165 -7.14146,0 -15.46354,2.159962 -22.92412,5.949878 -2.19244,1.113762 -3.26998,1.34715 -3.0394,0.658386 0.6112,-1.82583 9.29682,-7.278666 13.88598,-8.717632 4.2642,-1.337086 14.47578,-1.786536 19.3636,-0.852276 1.5194,0.290412 0.70652,-0.364982 -2.25928,-1.821552 -5.5038,-2.70305 -14.07916,-3.519632 -19.90498,-1.895442 -2.09876,0.585124 -6.15402,2.525666 -9.01176,4.312346 l -5.1959,3.248498 3.34272,-2.994948 c 10.37174,-9.292594 24.33576,-11.320188 34.26146,-4.97479 l 3.0704,1.962866 -2.84642,-4.211736 c -1.5655,-2.31646 -3.42096,-6.138346 -4.12324,-8.49307 -1.32424,-4.440236 -1.75158,-14.4888822 -0.64514,-15.1697982 0.34746,-0.213818 0.63172,1.9340582 0.63172,4.7730582 0,6.922992 3.0052,12.901822 10.50364,20.896916 8.66802,9.242162 10.74666,10.394338 19.81872,10.985422 19.037323,1.240376 35.859003,8.886669 48.483203,22.038009 5.8668,6.11178 9.51404,11.04283 12.4992,16.8989 3.39972,6.66924 1.66434,6.70212 -13.05726,0.24745 z m 35.88244,1.7764 c 0,-5.68197 -1.69822,-16.02243 -4.22832,-25.74603 -4.4372,-17.052903 -9.98198,-27.647851 -17.40572,-33.258673 -5.89544,-4.455746 -18.17382,-10.335486 -29.52668,-14.139436 -6.55942,-2.19782 -9.01696,-3.3230182 -7.27568,-3.3311962 4.94238,-0.02322 19.14118,4.1563782 26.91884,7.9239102 24.5057,11.870614 37.36136,32.801472 37.51524,61.080135 0.0272,5.01168 -0.1068,9.26791 -0.29802,9.45828 -0.1912,0.19034 -1.55182,0.58595 -3.02366,0.87907 -2.65432,0.52859 -2.676,0.50537 -2.676,-2.86606 z m 18.38402,-14.14043 c -1.2386,-1.30893 -4.51294,-7.15524 -7.27626,-12.99187 -11.29962,-23.866549 -20.49856,-33.461181 -41.7416,-43.537001 -19.932,-9.4539802 -41.3129,-12.1396122 -56.272483,-7.0683222 -3.62554,1.229044 -3.63222,1.227608 -1.72998,-0.371946 2.38936,-2.009168 10.61476,-4.720786 18.190803,-5.99687 8.57214,-1.44384998 27.9482,-0.55512 36.33288,1.666502 13.96912,3.701302 24.9136,10.2714122 37.7873,22.6842082 14.83456,14.30344 24.69636,29.466819 25.5391,39.268569 0.5069,5.89564 -0.62412,7.68553 -5.23814,8.28943 -2.87596,0.37641 -3.65226,0.1068 -5.59162,-1.9427 z"
     id="path12" />
</svg>
